<svg width="192" height="128" viewBox="14 12 164 112" fill="none" xmlns="http://www.w3.org/2000/svg">
  <rect x="14" y="12" width="164" height="112" fill="none"/>
  <path d="M51 92c-14.6 0-26.4-10.8-26.4-24.2 0-11.6 8.8-21.2 20.5-23.7C49.5 28.7 64.7 17 82.9 17c16.2 0 30.3 9.2 36.5 22.6 2.9-.8 5.9-1.2 9.1-1.2 18.7 0 33.9 13.9 33.9 31.1S147.2 100.6 128.5 100.6H54.6c-1.2 0-2.4-.2-3.6-.6Z" fill="#A9F2DD"/>
  <path d="M40.3 92.3c5.9 11 18.4 18.5 32.8 18.5h64.8c13.8 0 25.4-6.9 31.3-16.8-5.6 17.2-22.7 29.6-43 29.6H64.6c-17.7 0-32.8-9.5-39-23.1a34.9 34.9 0 0 0 14.7-8.2Z" fill="#79DABE" opacity=".86"/>
  <path d="M50.8 70.1h61.1v42.5H50.8V70.1Z" fill="#FF9DB6"/>
  <path d="M47.7 58.9c0-5 4.1-9.1 9.1-9.1h52.4c5 0 9.1 4.1 9.1 9.1v12.3H47.7V58.9Z" fill="#FFC6D4"/>
  <path d="M77.6 49.8h11.2v62.8H77.6V49.8Z" fill="#F47B99"/>
  <path d="M47.7 66.2h70.6v9.7H47.7v-9.7Z" fill="#F47B99"/>
  <path d="M83.2 48.2c-11.1-8.9-20.8-11.6-26.2-7.1-6.7 5.6-1 15.4 14.1 16.9l12.1-9.8Z" fill="#FFEEF2"/>
  <path d="M81.8 48.2c10.7-9.4 20.3-12.5 25.9-8.3 7 5.3 1.8 15.4-13 17.5l-12.9-9.2Z" fill="#FFEEF2"/>
  <path d="M75.2 53.2c7.3-3.9 16-3.8 23.1.4" stroke="#E95F86" stroke-width="5.8" stroke-linecap="round"/>
  <path d="M122.6 32.1h42.8c3.6 0 6.5 2.9 6.5 6.5s-2.9 6.5-6.5 6.5h-42.8c-3.6 0-6.5-2.9-6.5-6.5s2.9-6.5 6.5-6.5Z" fill="#8C6CE5"/>
  <path d="M123.3 91.4h42.8c3.6 0 6.5 2.9 6.5 6.5s-2.9 6.5-6.5 6.5h-42.8c-3.6 0-6.5-2.9-6.5-6.5s2.9-6.5 6.5-6.5Z" fill="#8C6CE5"/>
  <path d="M128.8 45.1h31.7v46.3h-31.7V45.1Z" fill="#FFF3C4" stroke="#8C6CE5" stroke-width="4"/>
  <path d="M134.1 48.6c6.2 9.7 14.9 9.7 20.8 0v11.2c-2.8 4.2-6 6.2-9.8 6.2-4 0-7.9-2.1-11-6.2V48.6Z" fill="#F8C762"/>
  <path d="M135.2 89.1c3.5-8.7 7.2-13 11.2-13 4.1 0 7.5 4.3 10.2 13h-21.4Z" fill="#F8C762"/>
  <path d="M144.7 65.8v10.3" stroke="#F4A940" stroke-width="3" stroke-linecap="round"/>
  <path d="M22.5 32.2l2.2 5.2 5.2 2.2-5.2 2.1-2.2 5.3-2.1-5.3-5.3-2.1 5.3-2.2 2.1-5.2Z" fill="#FFF7D7"/>
  <path d="M155.4 20.8l1.7 4 4 1.7-4 1.7-1.7 4-1.7-4-4-1.7 4-1.7 1.7-4Z" fill="#FFF7D7"/>
  <path d="M38.1 18.4l1.3 3.1 3.2 1.3-3.2 1.3-1.3 3.2-1.3-3.2-3.1-1.3 3.1-1.3 1.3-3.1Z" fill="#FFF7D7"/>
</svg>
